<svg fill="none" height="402" viewBox="0 0 850 402" width="850" xmlns="http://www.w3.org/2000/svg" xmlns:xlink="http://www.w3.org/1999/xlink"><linearGradient id="a"><stop offset="0" stop-color="#6c6c6d"/><stop offset="1" stop-color="#919396"/></linearGradient><linearGradient id="b" gradientUnits="userSpaceOnUse" x1="404.54" x2="404.093" xlink:href="#a" y1="297.687" y2="369.465"/><linearGradient id="c" gradientUnits="userSpaceOnUse" x1="364.899" x2="362.043" xlink:href="#a" y1="224.852" y2="234.929"/><linearGradient id="d" gradientUnits="userSpaceOnUse" x1="352.41" x2="349.859" xlink:href="#a" y1="236.268" y2="245.321"/><linearGradient id="e" gradientUnits="userSpaceOnUse" x1="343.514" x2="341.402" xlink:href="#a" y1="251" y2="258.533"/><linearGradient id="f" gradientUnits="userSpaceOnUse" x1="333.326" x2="345.238" xlink:href="#a" y1="272.966" y2="279.6"/><linearGradient id="g" gradientUnits="userSpaceOnUse" x1="498.789" x2="498.648" xlink:href="#a" y1="223.262" y2="232.196"/><linearGradient id="h" gradientUnits="userSpaceOnUse" x1="507.197" x2="507.077" xlink:href="#a" y1="236.418" y2="244.435"/><linearGradient id="i" gradientUnits="userSpaceOnUse" x1="511.327" x2="511.23" xlink:href="#a" y1="251.877" y2="258.704"/><linearGradient id="j" gradientUnits="userSpaceOnUse" x1="422.486" x2="421.574" xlink:href="#a" y1="216.382" y2="281.073"/><linearGradient id="k" gradientUnits="userSpaceOnUse" x1="333.708" x2="316.27" xlink:href="#a" y1="312.422" y2="315.673"/><linearGradient id="l" gradientUnits="userSpaceOnUse" x1="538.596" x2="556.439" xlink:href="#a" y1="322.076" y2="327.989"/><linearGradient id="m" gradientUnits="userSpaceOnUse" x1="422.09" x2="421.266" xlink:href="#a" y1="119.729" y2="182.193"/><linearGradient id="n" gradientUnits="userSpaceOnUse" x1="427.995" x2="425.706" xlink:href="#a" y1="292.586" y2="311.027"/><clipPath id="o"><path d="m0 0h850v402h-850z"/></clipPath><g clip-path="url(#o)"><path d="m449.959 50.6875c-2.899 0-5.621.7298-7.987 2.0317-4.024 2.2092-8.027 2.2092-12.07 0-2.367-1.3019-5.088-2.0317-7.987-2.0317-9.21 0-16.685 7.4759-16.685 16.6876 0 8.8567 6.903 16.0762 15.62 16.6285 0 .0592 30.193.0592 30.193.0592 8.698-.6312 15.58-7.8507 15.58-16.6877.02-9.2117-7.454-16.6876-16.664-16.6876zm-36.209 16.6876c0-4.5171 3.668-8.186 8.185-8.186 4.516 0 8.184 3.6689 8.184 8.186s-3.668 8.186-8.184 8.186c-4.517 0-8.185-3.6689-8.185-8.186zm36.209 8.186c-4.516 0-8.185-3.6689-8.185-8.186s3.669-8.186 8.185-8.186 8.184 3.6689 8.184 8.186-3.668 8.186-8.184 8.186z" fill="#ffce02"/><path d="m444.768 335.46.722-.355c.234-.118.277-.389.096-.6-.202-.22-.393-.457-.606-.668-.212-.203-.552-.237-.765-.093 0 0-.287.194-.638.44-.35.245-.914.177-1.275-.11-.372-.296-.446-.736-.138-1.023l.553-.508c.191-.169.127-.431-.139-.592-.276-.16-.542-.346-.829-.499-.276-.135-.616-.101-.765.093 0 0-.202.254-.446.567s-.797.389-1.265.194c-.457-.194-.701-.6-.51-.947l.34-.617c.107-.203-.042-.44-.35-.541-.33-.093-.638-.211-.978-.279-.308-.068-.627.042-.691.262 0 0-.096.296-.223.651-.117.355-.627.558-1.137.482s-.893-.414-.84-.778l.096-.668c.032-.22-.202-.414-.531-.439-.341-.026-.691-.043-1.031-.034-.33.008-.585.186-.574.406 0 0 .01.304.032.668.021.372-.393.684-.904.727-.51.042-.999-.186-1.084-.55l-.159-.659c-.053-.22-.351-.347-.67-.296-.34.05-.669.126-.998.211-.309.076-.489.313-.394.524 0 0 .128.288.277.634.148.347-.117.745-.595.905-.479.169-1.031.059-1.244-.262l-.393-.592c-.128-.194-.468-.253-.755-.127-.308.127-.595.271-.871.44-.266.152-.351.414-.181.592 0 0 .223.245.5.541.276.296.159.736-.234 1.006-.393.271-.956.296-1.286.034l-.595-.473c-.191-.161-.542-.136-.765.059-.245.203-.468.406-.68.626-.202.202-.181.481.042.608 0 0 .308.178.68.398s.425.668.149 1.014c-.276.356-.808.508-1.222.339l-.755-.313c-.244-.102-.563 0-.712.228-.159.245-.287.499-.414.761-.117.245 0 .499.266.567 0 0 .361.101.797.219.446.119.659.542.52.939-.138.397-.584.676-1.041.609l-.829-.127c-.276-.042-.542.127-.595.389-.075.27-.075.55-.106.82-.022.262.18.474.457.482 0 0 .382.009.85.025.467.017.829.364.85.778.021.415-.308.787-.765.821l-.84.076c-.276.025-.467.253-.436.507.043.271.139.541.202.812.064.253.34.414.617.355 0 0 .372-.076.818-.178.457-.093.925.152 1.095.541s0 .821-.425.964l-.766.271c-.255.084-.361.355-.223.592.149.245.33.482.5.727.159.228.478.313.712.194 0 0 .319-.16.722-.355.394-.203.936-.076 1.254.254.319.33.298.778-.053 1.023l-.637.431c-.213.144-.213.423 0 .618.223.211.489.389.744.583.233.178.573.186.754.017 0 0 .245-.228.553-.516.308-.279.871-.287 1.286-.042.425.245.584.676.329.989l-.446.567c-.149.186-.043.448.234.583.297.144.616.254.924.381.298.118.616.042.733-.161 0 0 .149-.279.34-.617.181-.347.723-.482 1.212-.347s.808.507.68.871l-.223.651c-.074.211.117.448.436.507l1.02.144c.319.051.606-.11.637-.338 0 0 .043-.296.096-.668s.521-.626 1.031-.617c.521.017.956.304.978.668l.032.676c.01.211.276.406.605.381l1.031-.093c.33-.026.542-.263.489-.474 0 0-.074-.296-.159-.659-.085-.364.255-.719.765-.829.499-.11 1.031.059 1.179.414l.277.634c.095.203.425.322.722.212l.946-.33c.298-.101.415-.38.287-.567 0 0-.181-.27-.393-.591-.223-.33-.213-.677.021-.778.138-.06.266-.127.404-.195.138-.067.266-.135.393-.203.213-.118.606.026.882.322l.5.541c.159.177.52.211.765.042l.786-.541c.255-.161.266-.457.064-.609 0 0-.266-.211-.595-.473-.329-.263-.298-.711.042-1.024.341-.312.893-.405 1.265-.186l.68.398c.213.127.574.076.744-.144l.553-.702c.18-.22.074-.499-.17-.6 0 0-.33-.144-.744-.313-.415-.169-.553-.609-.34-.989.212-.381.701-.601 1.148-.474l.797.22c.265.076.573-.059.658-.313l.277-.795c.064-.253-.117-.49-.383-.532 0 0-.372-.059-.829-.127s-.754-.457-.691-.871c.054-.414.447-.736.925-.719l.85.026c.287.008.51-.195.5-.457-.011-.279 0-.55-.032-.829-.032-.253-.287-.448-.563-.422 0 0-.372.033-.84.076-.468.042-.882-.262-.978-.668-.095-.406.16-.812.606-.905l.818-.178c.266-.05.404-.304.309-.549-.117-.262-.202-.533-.341-.778-.127-.237-.435-.355-.69-.271 0 0-.34.119-.765.271-.426.144-.936-.042-1.18-.406-.223-.372-.128-.812.266-1.015zm-3.529 1.252-5.664 2.832c-.84-.744-2.189-.989-3.348-.608l-3.56-4.499c4.294-1.919 9.735-.93 12.572 2.275zm-13.432-1.844 3.56 4.499c-.936.668-1.244 1.742-.766 2.663l-5.664 2.833c-2.391-3.416-1.158-7.745 2.87-9.995zm-2.317 10.68 5.653-2.833c.84.744 2.19.989 3.348.609l3.56 4.498c-4.293 1.92-9.724.93-12.561-2.274zm13.433 1.852-3.561-4.499c.936-.668 1.244-1.742.766-2.663l5.664-2.833c2.391 3.408 1.158 7.737-2.869 9.995z" fill="#ffce08"/><path d="m523.457 198.184-6.568-2.415 5.6-14.123-17.093 16.645 6.569 2.415-5.6 14.123z" fill="#ffce02"/><ellipse cx="436.13" cy="320.019" fill="url(#b)" opacity=".32" rx="124.344" ry="49.3956"/><path d="m372.356 231.843-5.609-10.418s2.138-1.166 4.436-2.136c2.278-1.007 4.708-1.729 5.026-1.781l2.795 11.495c.302-.103-1.48.412-3.204 1.17-1.735.74-3.444 1.67-3.444 1.67z" fill="#00b67a"/><path d="m366.001 235.979-7.191-9.394s1.883-1.522 3.958-2.796c1.006-.691 2.05-1.295 2.853-1.736.788-.444 1.324-.743 1.324-.743l5.573 10.439s-.414.24-1.058.601c-.641.346-1.483.822-2.273 1.388-1.653 1.005-3.186 2.241-3.186 2.241z" fill="url(#c)"/><path d="m360.425 240.963-8.482-8.262s.42-.436 1.037-1.093c.617-.658 1.553-1.428 2.44-2.242.901-.81 1.802-1.621 2.535-2.141.726-.552 1.202-.912 1.202-.912l7.116 9.449s-.383.294-.975.745c-.599.419-1.323 1.078-2.061 1.734-.724.659-1.483 1.279-1.991 1.814-.479.542-.821.908-.821.908z" fill="#00b67a"/><path d="m355.441 246.804-9.555-6.979s1.493-1.885 2.995-3.753c.715-.967 1.591-1.799 2.208-2.456.617-.658 1.038-1.094 1.038-1.094l8.446 8.282s-.337.352-.845.886c-.493.538-1.221 1.212-1.815 2.013-1.238 1.558-2.472 3.101-2.472 3.101z" fill="url(#d)"/><path d="m351.442 253.244-10.368-5.704s.29-.516.713-1.302c.394-.793 1.017-1.814 1.707-2.803.661-.996 1.322-1.992 1.826-2.74.49-.753.862-1.232.862-1.232l9.508 7.042s-.303.392-.698 1.017c-.409.622-.964 1.448-1.505 2.278-.58.805-1.097 1.657-1.428 2.329-.393.672-.617 1.115-.617 1.115z" fill="#00b67a"/><path d="m348.08 260.309-10.965-4.432s.93-2.172 1.873-4.342c.446-1.099 1.097-2.113 1.491-2.906.423-.785.713-1.302.713-1.302l10.341 5.743s-.238.438-.598 1.104c-.332.672-.891 1.513-1.263 2.449-.796 1.843-1.592 3.686-1.592 3.686z" fill="url(#e)"/><path d="m345.539 267.61-11.365-3.275s2.884-8.93 3.111-8.869l10.95 4.489c-.205-.086-2.696 7.655-2.696 7.655z" fill="#00b67a"/><path d="m343.684 275.367-11.621-2.201s.527-2.265 1.055-4.529c.271-1.131.528-2.265.727-3.126.181-.85.404-1.399.404-1.399l11.358 3.303s-.2.464-.355 1.215c-.168.747-.405 1.749-.639 2.738-.459 2.008-.929 3.999-.929 3.999z" fill="#fff"/><path d="m346.46 277.309c2.451-4.567.736-10.257-3.831-12.707-4.566-2.451-10.255-.735-12.705 3.832-2.451 4.568-.736 10.257 3.83 12.707 4.567 2.451 10.255.735 12.706-3.832z" fill="url(#f)"/><path d="m500.17 220.169-5.684 7.367s-1.406-1.088-2.928-2.016c-1.508-.943-3.132-1.711-3.132-1.711l4.016-8.397s2.059.972 3.987 2.175c1.943 1.19 3.741 2.582 3.741 2.582z" fill="#fff"/><path d="m506.462 226.144-7.061 6.047s-1.16-1.349-2.465-2.567c-1.291-1.218-2.711-2.305-2.711-2.305l5.611-7.425s1.827 1.363 3.479 2.943c1.668 1.567 3.147 3.307 3.147 3.307z" fill="url(#g)"/><path d="m511.377 233.772-8.366 4.075s-.783-1.668-1.696-3.089c-.464-.769-.899-1.305-1.319-1.842-.421-.507-.711-.855-.711-.855l7.032-6.091s.363.435.914 1.102c.522.652 1.334 1.711 1.928 2.697 1.276 1.987 2.218 4.003 2.218 4.003z" fill="#ffce08"/><path d="m514.479 241.545-8.844 2.885s-.58-1.798-1.276-3.524c-.682-1.74-1.494-3.364-1.494-3.364l8.323-4.147s1 2.015 1.812 4.046c.812 2.044 1.479 4.104 1.479 4.104z" fill="url(#h)"/><path d="m516.626 249.694-9.105 1.871s-.377-1.871-.87-3.698c-.478-1.842-1.073-3.626-1.073-3.626l8.83-2.915s.681 2.059 1.232 4.148c.566 2.102.986 4.22.986 4.22z" fill="#ffce08"/><path d="m517.845 257.859-9.265.841s-.058-.464-.13-1.175c-.073-.71-.189-1.638-.334-2.581-.275-1.871-.667-3.727-.667-3.727l9.106-1.914s.449 2.117.768 4.249c.174 1.073.305 2.146.392 2.958.072.812.13 1.349.13 1.349z" fill="url(#i)"/><path d="m518.047 266.4-9.294-.464s.014-.464.029-1.16c.029-.696.029-1.609 0-2.552-.029-1.856-.218-3.742-.218-3.742l9.265-.87s.203 2.161.261 4.365c.044 1.088.044 2.19 0 3.031-.029.841-.043 1.392-.043 1.392z" fill="#fff"/><path d="m508.971 281.715c-.739 0-1.493-.203-2.174-.623-4.118-2.596-6.568-7.048-6.568-11.921 0-7.758 6.307-14.081 14.078-14.081 7.772 0 14.079 6.308 14.079 14.081 0 4.684-2.32 9.049-6.206 11.674-1.87 1.262-4.408.769-5.669-1.102s-.769-4.409 1.102-5.67c1.624-1.102 2.595-2.93 2.595-4.902 0-3.248-2.653-5.902-5.901-5.902s-5.901 2.654-5.901 5.902c0 2.045 1.029 3.916 2.755 5.003 1.914 1.204 2.479 3.727 1.276 5.642-.783 1.218-2.103 1.899-3.466 1.899z" fill="#ffce08"/><path d="m484.59 281.037h-99.045v-64.947c0-13.3 10.774-24.103 24.098-24.103h50.849c13.297 0 24.098 10.777 24.098 24.103z" fill="url(#j)"/><path d="m406.779 256.935c2.801 0 5.072-2.272 5.072-5.073 0-2.802-2.271-5.073-5.072-5.073s-5.072 2.271-5.072 5.073c0 2.801 2.271 5.073 5.072 5.073z" fill="#ffce08"/><path d="m463.357 256.935c2.801 0 5.072-2.272 5.072-5.073 0-2.802-2.271-5.073-5.072-5.073s-5.072 2.271-5.072 5.073c0 2.801 2.271 5.073 5.072 5.073z" fill="#ffce08"/><path d="m503.803 142.076h-24.84v4.886h24.84z" fill="#37160f"/><path d="m499.206 144.518c0 5.514 4.471 9.984 9.986 9.984s9.986-4.47 9.986-9.984-4.471-9.984-9.986-9.984-9.986 4.47-9.986 9.984z" fill="#ed3e00"/><path d="m494.047 153.501c-2.559 1.27-5.195 2.405-5.195 2.405s.173.308.424.769c.288.443.692 1.02 1.077 1.597.847 1.116 1.789 2.174 1.789 2.174s1.848-2.174 3.849-4.252c.865-.923 1.751-1.789 2.482-2.5-.481-.558-.943-1.135-1.347-1.77-.885.462-1.963 1.019-3.079 1.577z" fill="#ffce08"/><path d="m495.971 133.052c-2.02-2.058-3.906-4.194-3.906-4.194s-.942 1.058-1.789 2.174c-.385.597-.77 1.174-1.058 1.616-.27.443-.423.77-.423.77s2.655 1.077 5.233 2.327c1.135.539 2.232 1.097 3.117 1.558.385-.634.847-1.211 1.328-1.769-.731-.712-1.636-1.578-2.502-2.482z" fill="#ffce08"/><path d="m505.265 127.551c-.424-2.828-.693-5.695-.693-5.695s-1.385.251-2.713.712c-1.347.404-2.617 1.02-2.617 1.02s1.52 2.462 2.867 4.982c.616 1.135 1.193 2.251 1.636 3.174.673-.269 1.366-.5 2.097-.654-.193-1-.404-2.251-.577-3.539z" fill="#ffce08"/><path d="m516.001 128.57c1.328-2.539 2.79-5.021 2.79-5.021s-1.289-.577-2.617-1c-.673-.192-1.347-.385-1.866-.519-.52-.097-.866-.174-.866-.174s-.212 2.867-.596 5.695c-.174 1.346-.385 2.674-.578 3.712.693.173 1.386.385 2.04.654.462-.961 1.058-2.154 1.693-3.347z" fill="#ffce08"/><path d="m524.102 135.688c2.559-1.27 5.195-2.405 5.195-2.405s-.173-.308-.423-.769c-.289-.443-.693-1.02-1.078-1.597-.847-1.116-1.789-2.174-1.789-2.174s-1.847 2.174-3.848 4.251c-.982 1.02-1.982 2.02-2.752 2.771.443.538.866 1.096 1.232 1.712.942-.5 2.212-1.155 3.463-1.789z" fill="#ffce08"/><path d="m522.563 145.633c1.058.135 2.482.347 3.906.597 2.828.481 5.638 1.096 5.638 1.096s.192-1.404.154-2.808c.019-1.405-.174-2.809-.174-2.809s-2.79.693-5.618 1.193c-1.424.269-2.828.481-3.887.635.02.346.097.692.097 1.038-.02.366-.097.712-.116 1.058z" fill="#ffce08"/><path d="m522.198 156.137c2.02 2.058 3.906 4.194 3.906 4.194s.943-1.058 1.789-2.174c.385-.596.77-1.173 1.059-1.616.269-.442.423-.769.423-.769s-2.655-1.078-5.234-2.328c-1.289-.616-2.539-1.25-3.501-1.751-.366.597-.789 1.174-1.232 1.712.789.731 1.79 1.713 2.79 2.732z" fill="#ffce08"/><path d="m512.886 161.619c.423 2.828.693 5.694.693 5.694s1.385-.25 2.712-.712c1.347-.404 2.617-1.019 2.617-1.019s-1.52-2.462-2.867-4.982c-.654-1.193-1.25-2.386-1.712-3.329-.654.289-1.347.481-2.04.655.193 1.038.404 2.366.597 3.693z" fill="#ffce08"/><path d="m505.303 161.658c.173-1.289.366-2.559.539-3.578-.731-.154-1.424-.385-2.097-.654-.443.923-1.02 2.058-1.617 3.193-1.327 2.539-2.79 5.021-2.79 5.021s1.289.577 2.617 1c.674.193 1.347.385 1.867.52.519.096.865.173.865.173s.231-2.847.616-5.675z" fill="#ffce08"/><path d="m507.989 150.152c.457 1.11 2.62 1.272 4.831.361 2.21-.91 3.632-2.548 3.174-3.658-.457-1.11-2.62-1.272-4.831-.362-2.21.911-3.632 2.549-3.174 3.659z" fill="#fff"/><path d="m394.39 316.786-3.378-17.389-7.329 1.425 3.379 17.388z" fill="#ffce08"/><path d="m387.247 318.173-3.379-17.388-7.329 1.424 3.379 17.388z" fill="#fff"/><path d="m380.273 319.53-3.378-17.388-7.329 1.424 3.378 17.388z" fill="#ffce08"/><path d="m373.132 320.917-3.379-17.388-7.329 1.424 3.379 17.388z" fill="#fff"/><path d="m366.157 322.271-3.379-17.388-7.329 1.424 3.379 17.388z" fill="#ffce08"/><path d="m359.016 323.659-3.378-17.388-7.329 1.424 3.378 17.388z" fill="#fff"/><path d="m352.04 325.014-3.379-17.388-7.329 1.424 3.379 17.388z" fill="#ffce08"/><path d="m344.9 326.402-3.379-17.388-7.328 1.424 3.378 17.388z" fill="#fff"/><path d="m341.494 317.428c-2.605-13.406-15.395-22.217-28.764-20.035l9.591 49.361c13.214-2.984 21.778-15.919 19.173-29.326z" fill="url(#k)"/><path d="m474.259 317.958 6.04-17.771 7.49 2.545-6.04 17.771z" fill="#ffce08"/><path d="m481.56 320.437 6.04-17.771 7.49 2.546-6.04 17.771z" fill="#fff"/><path d="m488.689 322.863 6.04-17.771 7.49 2.546-6.04 17.771z" fill="#ffce08"/><path d="m495.989 325.341 6.04-17.771 7.491 2.546-6.04 17.771z" fill="#fff"/><path d="m503.116 327.764 6.04-17.771 7.491 2.546-6.04 17.771z" fill="#ffce08"/><path d="m510.413 330.244 6.04-17.771 7.49 2.545-6.039 17.771z" fill="#fff"/><path d="m517.544 332.667 6.04-17.771 7.49 2.546-6.04 17.771z" fill="#ffce08"/><path d="m524.841 335.149 6.04-17.771 7.49 2.546-6.04 17.771z" fill="#fff"/><path d="m529.704 326.215c4.657-13.701 19.348-21.118 33.071-16.911l-17.145 50.448c-13.445-5.026-20.582-19.835-15.926-33.537z" fill="url(#l)"/><path d="m439.861 77.9482h-7.83v35.4858h7.83z" fill="#ffce02"/><path d="m376.624 137.743h-16.157v3.072h16.157z" fill="#ffce08"/><path d="m388.601 157.503c9.264 0 16.775-7.512 16.775-16.779s-7.511-16.779-16.775-16.779c-9.265 0-16.776 7.512-16.776 16.779s7.511 16.779 16.776 16.779z" fill="#ffce02"/><path d="m359.067 143.36c2.51 0 4.544-2.035 4.544-4.545s-2.034-4.544-4.544-4.544c-2.509 0-4.544 2.034-4.544 4.544s2.035 4.545 4.544 4.545z" fill="#ffce08"/><path d="m356.414 137.797c-.382 1.091-.236 2.127.327 2.327.564.2 1.345-.509 1.727-1.599.381-1.091.236-2.127-.327-2.327-.582-.2-1.345.509-1.727 1.599z" fill="#fff"/><g fill="#ffce08"><path d="m353.833 141.342c-.018 0-.236-.564-.236-.564s-.854.218-1.727.437c-.872.181-1.745.363-1.745.363-.036.018.618 1.6.655 1.582 0 0 .745-.473 1.508-.946.782-.436 1.545-.872 1.545-.872z"/><path d="m355.559 143.433c-.018.018-.454-.382-.454-.382s-.655.6-1.327 1.181c-.691.564-1.363 1.127-1.363 1.127-.037.037 1.29 1.127 1.308 1.091 0 0 .455-.763.891-1.545.473-.727.945-1.472.945-1.472z"/><path d="m358.05 144.487c0 .018-.582-.128-.582-.128s-.309.837-.618 1.673c-.345.818-.691 1.636-.691 1.636-.018.036 1.672.4 1.672.363 0 0 .037-.89.073-1.781.073-.891.146-1.763.146-1.763z"/><path d="m360.74 144.251c0 .018-.582.164-.582.164s.109.872.237 1.763c.072.891.145 1.763.145 1.763.018.055 1.672-.418 1.654-.454 0 0-.382-.8-.764-1.6-.345-.818-.69-1.636-.69-1.636z"/><path d="m363.029 142.798c.018.018-.436.418-.436.418s.509.727 1.017 1.454c.473.746.964 1.491.964 1.491.036.054 1.272-1.145 1.254-1.164 0 0-.709-.527-1.418-1.072-.709-.564-1.381-1.127-1.381-1.127z"/><path d="m363.32 135.307.364.49s.781-.418 1.563-.836c.799-.382 1.599-.763 1.599-.763.037-.018-.963-1.418-1.018-1.382 0 0-.617.636-1.235 1.273-.637.6-1.273 1.218-1.273 1.218z"/><path d="m361.14 133.689.545.273s.491-.727 1-1.454c.527-.709 1.054-1.418 1.054-1.418.018-.036-1.509-.8-1.545-.764 0 0-.255.855-.491 1.709-.291.818-.563 1.654-.563 1.654z"/><path d="m358.467 133.271s.6-.037.6-.018c0 0 .091-.873.2-1.764.145-.872.272-1.763.272-1.763 0-.036-1.708 0-1.708.036 0 0 .182.873.345 1.727.146.891.291 1.782.291 1.782z"/><path d="m355.904 134.125s.509-.309.528-.291c0 0-.328-.818-.637-1.654-.29-.836-.581-1.691-.581-1.691-.018-.036-1.527.8-1.491.837 0 0 .564.69 1.127 1.381.509.709 1.054 1.418 1.054 1.418z"/><path d="m354.033 136.089s.309-.509.327-.509c0 0-.672-.582-1.327-1.164-.636-.618-1.29-1.218-1.29-1.218-.037-.018-.982 1.4-.927 1.437 0 0 .818.345 1.636.69.781.382 1.581.764 1.581.764z"/><path d="m353.288 138.688s.036-.6.054-.6c0 0-.854-.2-1.727-.4-.854-.236-1.708-.491-1.708-.491-.036 0-.2 1.709-.163 1.709 0 0 .89-.073 1.781-.145.872-.037 1.763-.073 1.763-.073z"/></g><path d="m486.146 136.257c0-22.053-18.046-40.0822-40.074-40.0822h-22.01c-22.048 0-40.074 18.0482-40.074 40.0822v45.9h102.158z" fill="url(#m)"/><path d="m418.877 153.496c5.962-5.962 5.962-15.629 0-21.591-5.961-5.963-15.625-5.963-21.586 0-5.962 5.962-5.962 15.629 0 21.591 5.961 5.962 15.625 5.962 21.586 0z" fill="#ffce08"/><path d="m408.089 151.287c4.738 0 8.578-3.842 8.578-8.581 0-4.738-3.84-8.58-8.578-8.58s-8.579 3.842-8.579 8.58c0 4.739 3.841 8.581 8.579 8.581z" fill="#00b67a"/><path d="m410.829 145.448c1.518-1.518 1.518-3.978 0-5.496-1.517-1.517-3.977-1.517-5.494 0-1.517 1.518-1.517 3.978 0 5.496 1.517 1.517 3.977 1.517 5.494 0z" fill="#fff"/><path d="m450.846 157.658h-27.334v5.878h27.334z" fill="#fff"/><path d="m429.665 158.961h-4.753v3.334h4.753z" fill="#ffce08"/><path d="m436.253 158.96h-4.753v3.334h4.753z" fill="#ffce08"/><path d="m442.839 158.96h-4.753v3.334h4.753z" fill="#ffce08"/><path d="m449.444 158.96h-4.753v3.334h4.753z" fill="#ffce08"/><path d="m478.315 142.711c-.001-8.46-6.859-15.318-15.319-15.319-8.459-.001-15.317 6.856-15.316 15.316s6.86 15.318 15.319 15.319c8.46.001 15.317-6.857 15.316-15.316z" fill="#fff"/><path d="m471.704 151.408c4.803-4.802 4.802-12.59-.002-17.393-4.803-4.804-12.59-4.804-17.393-.002-4.802 4.803-4.802 12.59.002 17.393 4.803 4.804 12.59 4.805 17.393.002z" fill="#ed3e00"/><path d="m460.544 146.245c-.835-1.351-2.607-1.769-3.958-.935-1.35.835-1.768 2.606-.933 3.957.834 1.351 2.606 1.769 3.957.935 1.35-.835 1.768-2.606.934-3.957z" fill="#fff"/><path d="m465.967 142.696c-.001-1.588-1.288-2.875-2.876-2.875-1.588-.001-2.875 1.286-2.874 2.874 0 1.588 1.287 2.875 2.875 2.876 1.588 0 2.875-1.287 2.875-2.875z" fill="#fff"/><path d="m470.46 136.001c-.929-1.288-2.726-1.58-4.014-.652-1.288.929-1.579 2.725-.651 4.014.929 1.288 2.726 1.58 4.014.651 1.288-.928 1.579-2.725.651-4.013z" fill="#fff"/><path d="m460.967 137.682c-.001-1.588-1.288-2.875-2.876-2.875s-2.875 1.287-2.874 2.875c0 1.587 1.287 2.875 2.875 2.875s2.875-1.287 2.875-2.875z" fill="#fff"/><path d="m470.982 147.71c0-1.587-1.287-2.875-2.875-2.875s-2.875 1.287-2.875 2.875 1.288 2.875 2.875 2.875c1.588 0 2.875-1.287 2.875-2.875z" fill="#fff"/><path d="m464.821 289.843-57.432-6.723-2.974 25.402 57.432 6.722z" fill="url(#n)"/><path d="m421.19 291.634-4.467-.523-1.306 11.155 4.467.523z" fill="#fff"/><path d="m423.914 299.772.498-4.252-11.717-1.372-.498 4.253z" fill="#fff"/><path d="m450.483 306.832c3.496.409 6.646-1.957 7.035-5.285.39-3.328-2.128-6.358-5.624-6.767s-6.645 1.957-7.035 5.285c-.389 3.328 2.129 6.357 5.624 6.767z" fill="#fff"/><path d="m456.003 302.514c.949-2.522-.436-5.323-3.093-6.256s-5.58.355-6.529 2.878c-.948 2.522.437 5.323 3.094 6.256s5.58-.356 6.528-2.878z" fill="#ffce08"/><path d="m451.94 299.664c-.576-.068-1.093.321-1.158.87-.064.549.35 1.046.926 1.114l5.354.627.233-1.984z" fill="#fff"/><path d="m429.296 299.485c.71.083 1.35-.398 1.429-1.074s-.432-1.292-1.142-1.375-1.35.398-1.429 1.074c-.08.676.432 1.291 1.142 1.375z" fill="#fff"/><path d="m434.949 300.146c.71.083 1.35-.398 1.429-1.074s-.433-1.291-1.143-1.375c-.71-.083-1.35.398-1.429 1.074s.432 1.292 1.143 1.375z" fill="#fff"/><path d="m440.603 300.808c.71.083 1.35-.398 1.429-1.074s-.432-1.291-1.143-1.374c-.71-.084-1.35.397-1.429 1.073s.433 1.292 1.143 1.375z" fill="#fff"/><path d="m376.232 195.08-.208.662-2.788 8.849-.197.63-.631.197-16.036 5.006-.631.197-.513-.408-7.328-5.69-.542-.429.062-.689c.59-6.509 4.999-11.965 11.225-13.909 6.233-1.946 12.969.031 17.158 5.048z" fill="#ffce08"/><path d="m355.581 197.768 4.319 8.677 4.202-1.312z" fill="#ffce08"/><path d="m359.395 192.204c-4.898 1.529-8.426 5.676-9.195 10.703l6.02 4.678 4.341-1.355-4.453-7.754 7.109 6.925 7.527-2.35 2.296-7.274c-3.486-3.699-8.753-5.1-13.645-3.573z" fill="#fff"/><path d="m353.198 199.116c.274.177.357.537.193.807-.174.258-.519.366-.809.209-.289-.158-.398-.531-.21-.816.183-.298.55-.383.826-.2z" fill="#ffce08"/><path d="m355.193 196.614c.233.234.239.603.024.824-.233.211-.577.252-.831.047-.246-.207-.298-.606-.043-.838.236-.249.619-.259.85-.033z" fill="#ffce08"/><path d="m357.684 194.633c.162.285.057.602-.178.806-.248.187-.603.123-.8-.136-.2-.266-.129-.645.15-.849.271-.23.669-.099.828.179z" fill="#ffce08"/><path d="m360.656 193.488c.077.318-.107.638-.405.709-.297.078-.634-.116-.745-.424-.11-.307.067-.625.403-.715.341-.078.676.109.747.43z" fill="#ffce08"/><path d="m363.817 193.112c-.015.326-.28.598-.582.612-.303.007-.573-.251-.602-.577s.235-.598.581-.612c.354-.008.624.25.603.577z" fill="#ffce08"/><path d="m366.95 193.7c-.107.311-.429.469-.717.363-.297-.09-.492-.364-.42-.692.07-.314.411-.551.741-.45.325.131.506.476.396.779z" fill="#ffce08"/><path d="m369.812 195.117c-.19.278-.532.326-.804.178s-.367-.498-.216-.785c.15-.288.526-.39.827-.222.305.16.372.562.193.829z" fill="#ffce08"/><path d="m116.285 280.29v-55.36l93.42-122.484h65.048v132.172h35.984v45.672h-35.984v46.71h-54.668v-46.71zm103.8-45.672v-74.044l-56.398 74.044z" fill="#54565a"/><path d="m544.661 280.29v-55.36l93.42-122.484h65.048v132.172h35.984v45.672h-35.984v46.71h-54.668v-46.71zm103.8-45.672v-74.044l-56.398 74.044z" fill="#54565a"/><path d="m439.698 214.206c0-2.468-1.94-4.408-4.409-4.408-2.468 0-4.408 1.94-4.408 4.408v8.112l8.64-2.469v-5.643z" fill="#ffcd00"/><path d="m430.881 258.819c0 2.469 1.94 4.408 4.408 4.408 2.469 0 4.409-1.939 4.409-4.408v-27.156l-8.641 2.469v24.687z" fill="#ffcd00"/><path d="m459.094 220.026c-.529-1.764-2.292-3.174-4.232-3.174-.352 0-.881 0-1.234.176l-9.346 2.645-4.761 1.411-8.641 2.645-3.174.881-13.578 3.88c-1.058.352-2.116 1.058-2.645 2.116s-.705 2.116-.352 3.35c.529 1.764 2.292 3.174 4.232 3.174.352 0 .881 0 1.234-.176l14.107-4.232 8.641-2.469 16.399-4.761c1.058-.353 2.116-1.058 2.645-2.116.882-1.058.882-2.292.705-3.35z" fill="#ffcd00"/></g></svg>